<svg  viewBox="0 0 147 38" fill="none" xmlns="http://www.w3.org/2000/svg">
<path fill-rule="evenodd" clip-rule="evenodd" d="M16.156 38C26.5071 38 34.8983 29.4934 34.8983 19C34.8983 17.1125 34.6269 15.2893 34.1213 13.5683H29.6524V30.1919C29.6524 31.0242 29.4364 31.6703 29.0043 32.1303C28.5938 32.5902 27.978 32.8202 27.1571 32.8202C26.3361 32.8202 25.7095 32.5902 25.2774 32.1303C24.8453 31.6703 24.6293 31.0242 24.6293 30.1919V13.5683H18.8932C18.2234 13.5683 17.7049 13.3821 17.3376 13.0098C16.9703 12.6375 16.7867 12.1228 16.7867 11.4657C16.7867 10.7867 16.9703 10.272 17.3376 9.92161C17.7049 9.54928 18.2234 9.36311 18.8932 9.36311H32.3121C29.0527 3.75957 23.0374 0 16.156 0C9.27463 0 3.25941 3.75957 0 9.36311H7.68808C10.2375 9.36311 12.2035 9.98732 13.5862 11.2357C14.969 12.4841 15.6603 14.2254 15.6603 16.4594C15.6603 17.9049 15.347 19.1533 14.7205 20.2046C14.094 21.2559 13.1865 22.0663 11.9983 22.6357C11.5832 22.8383 11.1341 23.0049 10.6507 23.1353C11.0058 23.2494 11.3362 23.4114 11.6418 23.6213C12.3331 24.0594 12.9273 24.7383 13.4242 25.6582L15.4335 29.4363C15.7359 29.9839 15.8764 30.5205 15.8548 31.0461C15.8331 31.5718 15.6387 31.9988 15.2714 32.3274C14.9041 32.6559 14.364 32.8202 13.651 32.8202C12.9381 32.8202 12.3548 32.6669 11.901 32.3602C11.469 32.0536 11.0801 31.5827 10.7344 30.9476L7.62326 25.1326C7.29919 24.5193 6.8995 24.1032 6.42419 23.8842C5.97048 23.6651 5.40875 23.5556 4.739 23.5556H2.27604V30.1919C2.27604 30.6954 2.19699 31.1307 2.03888 31.4979C5.47449 35.4828 10.5253 38 16.156 38ZM6.78067 19.8761H2.27604V13.3383H6.78067C8.12017 13.3383 9.1248 13.6121 9.79456 14.1597C10.4859 14.7072 10.8316 15.5176 10.8316 16.5908C10.8316 17.6859 10.4859 18.5072 9.79456 19.0548C9.1248 19.6023 8.12017 19.8761 6.78067 19.8761Z" fill="#FFC107"/>
<path d="M43.0133 26.12C42.7033 26.12 42.4633 26.035 42.2933 25.865C42.1333 25.685 42.0533 25.44 42.0533 25.13V16.4C42.0533 16.08 42.1383 15.84 42.3083 15.68C42.4783 15.51 42.7183 15.425 43.0283 15.425H46.6433C47.8033 15.425 48.6983 15.705 49.3283 16.265C49.9583 16.815 50.2733 17.59 50.2733 18.59C50.2733 19.24 50.1283 19.8 49.8383 20.27C49.5583 20.74 49.1483 21.1 48.6083 21.35C48.0683 21.6 47.4133 21.725 46.6433 21.725L46.7783 21.5H47.2733C47.6833 21.5 48.0383 21.6 48.3383 21.8C48.6483 22 48.9183 22.315 49.1483 22.745L50.2733 24.83C50.3933 25.04 50.4483 25.245 50.4383 25.445C50.4283 25.645 50.3533 25.81 50.2133 25.94C50.0733 26.06 49.8683 26.12 49.5983 26.12C49.3283 26.12 49.1083 26.065 48.9383 25.955C48.7683 25.835 48.6183 25.655 48.4883 25.415L46.9733 22.625C46.7933 22.285 46.5783 22.06 46.3283 21.95C46.0883 21.83 45.7783 21.77 45.3983 21.77H43.9733V25.13C43.9733 25.44 43.8933 25.685 43.7333 25.865C43.5733 26.035 43.3333 26.12 43.0133 26.12ZM43.9733 20.345H46.3133C47.0033 20.345 47.5233 20.205 47.8733 19.925C48.2333 19.635 48.4133 19.205 48.4133 18.635C48.4133 18.075 48.2333 17.655 47.8733 17.375C47.5233 17.085 47.0033 16.94 46.3133 16.94H43.9733V20.345ZM53.0865 26.105C52.7865 26.105 52.5565 26.015 52.3965 25.835C52.2365 25.655 52.1565 25.405 52.1565 25.085V19.58C52.1565 19.25 52.2365 19 52.3965 18.83C52.5565 18.65 52.7865 18.56 53.0865 18.56C53.3865 18.56 53.6165 18.65 53.7765 18.83C53.9465 19 54.0315 19.25 54.0315 19.58V25.085C54.0315 25.405 53.9515 25.655 53.7915 25.835C53.6315 26.015 53.3965 26.105 53.0865 26.105ZM53.0865 17.165C52.7365 17.165 52.4615 17.08 52.2615 16.91C52.0715 16.73 51.9765 16.485 51.9765 16.175C51.9765 15.855 52.0715 15.61 52.2615 15.44C52.4615 15.27 52.7365 15.185 53.0865 15.185C53.4465 15.185 53.7215 15.27 53.9115 15.44C54.1015 15.61 54.1965 15.855 54.1965 16.175C54.1965 16.485 54.1015 16.73 53.9115 16.91C53.7215 17.08 53.4465 17.165 53.0865 17.165ZM57.4198 26.12C57.1198 26.12 56.8848 26.04 56.7148 25.88C56.5548 25.71 56.4748 25.47 56.4748 25.16V20.075H55.7848C55.5448 20.075 55.3598 20.015 55.2298 19.895C55.0998 19.765 55.0348 19.59 55.0348 19.37C55.0348 19.14 55.0998 18.965 55.2298 18.845C55.3598 18.725 55.5448 18.665 55.7848 18.665H57.0148L56.4748 19.16V18.65C56.4748 17.62 56.7348 16.85 57.2548 16.34C57.7748 15.82 58.5248 15.515 59.5048 15.425L60.0148 15.38C60.2148 15.36 60.3748 15.395 60.4948 15.485C60.6148 15.565 60.6948 15.675 60.7348 15.815C60.7748 15.945 60.7798 16.08 60.7498 16.22C60.7198 16.36 60.6548 16.485 60.5548 16.595C60.4648 16.695 60.3448 16.75 60.1948 16.76L59.9848 16.775C59.4148 16.815 58.9998 16.96 58.7398 17.21C58.4798 17.46 58.3498 17.84 58.3498 18.35V18.905L58.1098 18.665H59.6248C59.8648 18.665 60.0498 18.725 60.1798 18.845C60.3098 18.965 60.3748 19.14 60.3748 19.37C60.3748 19.59 60.3098 19.765 60.1798 19.895C60.0498 20.015 59.8648 20.075 59.6248 20.075H58.3498V25.16C58.3498 25.8 58.0398 26.12 57.4198 26.12ZM63.7854 26.15C63.2554 26.15 62.7804 26.05 62.3604 25.85C61.9504 25.64 61.6254 25.36 61.3854 25.01C61.1554 24.66 61.0404 24.265 61.0404 23.825C61.0404 23.285 61.1804 22.86 61.4604 22.55C61.7404 22.23 62.1954 22 62.8254 21.86C63.4554 21.72 64.3004 21.65 65.3604 21.65H66.1104V22.73H65.3754C64.7554 22.73 64.2604 22.76 63.8904 22.82C63.5204 22.88 63.2554 22.985 63.0954 23.135C62.9454 23.275 62.8704 23.475 62.8704 23.735C62.8704 24.065 62.9854 24.335 63.2154 24.545C63.4454 24.755 63.7654 24.86 64.1754 24.86C64.5054 24.86 64.7954 24.785 65.0454 24.635C65.3054 24.475 65.5104 24.26 65.6604 23.99C65.8104 23.72 65.8854 23.41 65.8854 23.06V21.335C65.8854 20.835 65.7754 20.475 65.5554 20.255C65.3354 20.035 64.9654 19.925 64.4454 19.925C64.1554 19.925 63.8404 19.96 63.5004 20.03C63.1704 20.1 62.8204 20.22 62.4504 20.39C62.2604 20.48 62.0904 20.505 61.9404 20.465C61.8004 20.425 61.6904 20.345 61.6104 20.225C61.5304 20.095 61.4904 19.955 61.4904 19.805C61.4904 19.655 61.5304 19.51 61.6104 19.37C61.6904 19.22 61.8254 19.11 62.0154 19.04C62.4754 18.85 62.9154 18.715 63.3354 18.635C63.7654 18.555 64.1554 18.515 64.5054 18.515C65.2254 18.515 65.8154 18.625 66.2754 18.845C66.7454 19.065 67.0954 19.4 67.3254 19.85C67.5554 20.29 67.6704 20.86 67.6704 21.56V25.16C67.6704 25.47 67.5954 25.71 67.4454 25.88C67.2954 26.04 67.0804 26.12 66.8004 26.12C66.5204 26.12 66.3004 26.04 66.1404 25.88C65.9904 25.71 65.9154 25.47 65.9154 25.16V24.44H66.0354C65.9654 24.79 65.8254 25.095 65.6154 25.355C65.4154 25.605 65.1604 25.8 64.8504 25.94C64.5404 26.08 64.1854 26.15 63.7854 26.15ZM72.9335 26.15C72.2835 26.15 71.7385 26.04 71.2985 25.82C70.8685 25.6 70.5485 25.28 70.3385 24.86C70.1285 24.43 70.0235 23.9 70.0235 23.27V20.075H69.2435C69.0035 20.075 68.8185 20.015 68.6885 19.895C68.5585 19.765 68.4935 19.59 68.4935 19.37C68.4935 19.14 68.5585 18.965 68.6885 18.845C68.8185 18.725 69.0035 18.665 69.2435 18.665H70.0235V17.3C70.0235 16.99 70.1035 16.755 70.2635 16.595C70.4335 16.435 70.6685 16.355 70.9685 16.355C71.2685 16.355 71.4985 16.435 71.6585 16.595C71.8185 16.755 71.8985 16.99 71.8985 17.3V18.665H73.4885C73.7285 18.665 73.9135 18.725 74.0435 18.845C74.1735 18.965 74.2385 19.14 74.2385 19.37C74.2385 19.59 74.1735 19.765 74.0435 19.895C73.9135 20.015 73.7285 20.075 73.4885 20.075H71.8985V23.165C71.8985 23.645 72.0035 24.005 72.2135 24.245C72.4235 24.485 72.7635 24.605 73.2335 24.605C73.4035 24.605 73.5535 24.59 73.6835 24.56C73.8135 24.53 73.9285 24.51 74.0285 24.5C74.1485 24.49 74.2485 24.53 74.3285 24.62C74.4085 24.7 74.4485 24.87 74.4485 25.13C74.4485 25.33 74.4135 25.51 74.3435 25.67C74.2835 25.82 74.1685 25.925 73.9985 25.985C73.8685 26.025 73.6985 26.06 73.4885 26.09C73.2785 26.13 73.0935 26.15 72.9335 26.15Z" fill="white"/>
<path d="M83.0926 26.12C82.7826 26.12 82.5426 26.035 82.3726 25.865C82.2126 25.685 82.1326 25.44 82.1326 25.13V17.03H79.2076C78.9476 17.03 78.7426 16.96 78.5926 16.82C78.4526 16.67 78.3826 16.47 78.3826 16.22C78.3826 15.96 78.4526 15.765 78.5926 15.635C78.7426 15.495 78.9476 15.425 79.2076 15.425H86.9776C87.2376 15.425 87.4376 15.495 87.5776 15.635C87.7276 15.765 87.8026 15.96 87.8026 16.22C87.8026 16.47 87.7276 16.67 87.5776 16.82C87.4376 16.96 87.2376 17.03 86.9776 17.03H84.0526V25.13C84.0526 25.44 83.9726 25.685 83.8126 25.865C83.6526 26.035 83.4126 26.12 83.0926 26.12ZM88.5071 26.12C88.1971 26.12 87.9571 26.04 87.7871 25.88C87.6271 25.71 87.5471 25.47 87.5471 25.16V19.49C87.5471 19.18 87.6271 18.945 87.7871 18.785C87.9471 18.625 88.1721 18.545 88.4621 18.545C88.7521 18.545 88.9771 18.625 89.1371 18.785C89.2971 18.945 89.3771 19.18 89.3771 19.49V20.435H89.2271C89.3671 19.835 89.6421 19.38 90.0521 19.07C90.4621 18.76 91.0071 18.575 91.6871 18.515C91.8971 18.495 92.0621 18.55 92.1821 18.68C92.3121 18.8 92.3871 18.99 92.4071 19.25C92.4271 19.5 92.3671 19.705 92.2271 19.865C92.0971 20.015 91.8971 20.105 91.6271 20.135L91.2971 20.165C90.6871 20.225 90.2271 20.415 89.9171 20.735C89.6071 21.045 89.4521 21.485 89.4521 22.055V25.16C89.4521 25.47 89.3721 25.71 89.2121 25.88C89.0521 26.04 88.8171 26.12 88.5071 26.12ZM95.7629 26.15C95.2329 26.15 94.7579 26.05 94.3379 25.85C93.9279 25.64 93.6029 25.36 93.3629 25.01C93.1329 24.66 93.0179 24.265 93.0179 23.825C93.0179 23.285 93.1579 22.86 93.4379 22.55C93.7179 22.23 94.1729 22 94.8029 21.86C95.4329 21.72 96.2779 21.65 97.3379 21.65H98.0879V22.73H97.3529C96.7329 22.73 96.2379 22.76 95.8679 22.82C95.4979 22.88 95.2329 22.985 95.0729 23.135C94.9229 23.275 94.8479 23.475 94.8479 23.735C94.8479 24.065 94.9629 24.335 95.1929 24.545C95.4229 24.755 95.7429 24.86 96.1529 24.86C96.4829 24.86 96.7729 24.785 97.0229 24.635C97.2829 24.475 97.4879 24.26 97.6379 23.99C97.7879 23.72 97.8629 23.41 97.8629 23.06V21.335C97.8629 20.835 97.7529 20.475 97.5329 20.255C97.3129 20.035 96.9429 19.925 96.4229 19.925C96.1329 19.925 95.8179 19.96 95.4779 20.03C95.1479 20.1 94.7979 20.22 94.4279 20.39C94.2379 20.48 94.0679 20.505 93.9179 20.465C93.7779 20.425 93.6679 20.345 93.5879 20.225C93.5079 20.095 93.4679 19.955 93.4679 19.805C93.4679 19.655 93.5079 19.51 93.5879 19.37C93.6679 19.22 93.8029 19.11 93.9929 19.04C94.4529 18.85 94.8929 18.715 95.3129 18.635C95.7429 18.555 96.1329 18.515 96.4829 18.515C97.2029 18.515 97.7929 18.625 98.2529 18.845C98.7229 19.065 99.0729 19.4 99.3029 19.85C99.5329 20.29 99.6479 20.86 99.6479 21.56V25.16C99.6479 25.47 99.5729 25.71 99.4229 25.88C99.2729 26.04 99.0579 26.12 98.7779 26.12C98.4979 26.12 98.2779 26.04 98.1179 25.88C97.9679 25.71 97.8929 25.47 97.8929 25.16V24.44H98.0129C97.9429 24.79 97.8029 25.095 97.5929 25.355C97.3929 25.605 97.1379 25.8 96.8279 25.94C96.5179 26.08 96.1629 26.15 95.7629 26.15ZM102.481 26.12C102.181 26.12 101.951 26.04 101.791 25.88C101.631 25.71 101.551 25.47 101.551 25.16V19.49C101.551 19.18 101.631 18.945 101.791 18.785C101.951 18.625 102.176 18.545 102.466 18.545C102.756 18.545 102.981 18.625 103.141 18.785C103.301 18.945 103.381 19.18 103.381 19.49V20.51L103.216 20.135C103.436 19.605 103.776 19.205 104.236 18.935C104.706 18.655 105.236 18.515 105.826 18.515C106.416 18.515 106.901 18.625 107.281 18.845C107.661 19.065 107.946 19.4 108.136 19.85C108.326 20.29 108.421 20.85 108.421 21.53V25.16C108.421 25.47 108.341 25.71 108.181 25.88C108.021 26.04 107.791 26.12 107.491 26.12C107.191 26.12 106.956 26.04 106.786 25.88C106.626 25.71 106.546 25.47 106.546 25.16V21.62C106.546 21.05 106.436 20.635 106.216 20.375C106.006 20.115 105.676 19.985 105.226 19.985C104.676 19.985 104.236 20.16 103.906 20.51C103.586 20.85 103.426 21.305 103.426 21.875V25.16C103.426 25.8 103.111 26.12 102.481 26.12ZM113.01 26.15C112.58 26.15 112.125 26.105 111.645 26.015C111.165 25.925 110.735 25.77 110.355 25.55C110.195 25.45 110.08 25.335 110.01 25.205C109.95 25.065 109.925 24.93 109.935 24.8C109.955 24.66 110.005 24.54 110.085 24.44C110.175 24.34 110.285 24.275 110.415 24.245C110.555 24.215 110.705 24.24 110.865 24.32C111.265 24.51 111.64 24.645 111.99 24.725C112.34 24.795 112.685 24.83 113.025 24.83C113.505 24.83 113.86 24.75 114.09 24.59C114.33 24.42 114.45 24.2 114.45 23.93C114.45 23.7 114.37 23.525 114.21 23.405C114.06 23.275 113.83 23.18 113.52 23.12L112.02 22.835C111.4 22.715 110.925 22.49 110.595 22.16C110.275 21.82 110.115 21.385 110.115 20.855C110.115 20.375 110.245 19.96 110.505 19.61C110.775 19.26 111.145 18.99 111.615 18.8C112.085 18.61 112.625 18.515 113.235 18.515C113.675 18.515 114.085 18.565 114.465 18.665C114.855 18.755 115.23 18.9 115.59 19.1C115.74 19.18 115.84 19.285 115.89 19.415C115.95 19.545 115.965 19.68 115.935 19.82C115.905 19.95 115.845 20.07 115.755 20.18C115.665 20.28 115.55 20.345 115.41 20.375C115.28 20.395 115.13 20.365 114.96 20.285C114.65 20.125 114.35 20.01 114.06 19.94C113.78 19.87 113.51 19.835 113.25 19.835C112.76 19.835 112.395 19.92 112.155 20.09C111.925 20.26 111.81 20.485 111.81 20.765C111.81 20.975 111.88 21.15 112.02 21.29C112.16 21.43 112.375 21.525 112.665 21.575L114.165 21.86C114.815 21.98 115.305 22.2 115.635 22.52C115.975 22.84 116.145 23.27 116.145 23.81C116.145 24.54 115.86 25.115 115.29 25.535C114.72 25.945 113.96 26.15 113.01 26.15ZM118.58 28.82C118.28 28.82 118.05 28.74 117.89 28.58C117.73 28.42 117.65 28.185 117.65 27.875V19.49C117.65 19.18 117.73 18.945 117.89 18.785C118.05 18.625 118.275 18.545 118.565 18.545C118.865 18.545 119.095 18.625 119.255 18.785C119.415 18.945 119.495 19.18 119.495 19.49V20.66L119.33 20.21C119.48 19.7 119.785 19.29 120.245 18.98C120.715 18.67 121.26 18.515 121.88 18.515C122.52 18.515 123.08 18.67 123.56 18.98C124.05 19.29 124.43 19.73 124.7 20.3C124.97 20.86 125.105 21.535 125.105 22.325C125.105 23.105 124.97 23.785 124.7 24.365C124.43 24.935 124.055 25.375 123.575 25.685C123.095 25.995 122.53 26.15 121.88 26.15C121.27 26.15 120.735 26 120.275 25.7C119.815 25.39 119.505 24.99 119.345 24.5H119.525V27.875C119.525 28.185 119.44 28.42 119.27 28.58C119.11 28.74 118.88 28.82 118.58 28.82ZM121.355 24.725C121.725 24.725 122.05 24.635 122.33 24.455C122.61 24.275 122.825 24.01 122.975 23.66C123.135 23.3 123.215 22.855 123.215 22.325C123.215 21.525 123.045 20.93 122.705 20.54C122.365 20.14 121.915 19.94 121.355 19.94C120.985 19.94 120.66 20.03 120.38 20.21C120.1 20.38 119.88 20.645 119.72 21.005C119.57 21.355 119.495 21.795 119.495 22.325C119.495 23.115 119.665 23.715 120.005 24.125C120.345 24.525 120.795 24.725 121.355 24.725ZM129.989 26.15C129.229 26.15 128.569 25.995 128.009 25.685C127.449 25.375 127.014 24.935 126.704 24.365C126.394 23.785 126.239 23.105 126.239 22.325C126.239 21.735 126.324 21.21 126.494 20.75C126.674 20.28 126.929 19.88 127.259 19.55C127.589 19.21 127.984 18.955 128.444 18.785C128.904 18.605 129.419 18.515 129.989 18.515C130.749 18.515 131.409 18.67 131.969 18.98C132.529 19.29 132.964 19.73 133.274 20.3C133.584 20.87 133.739 21.545 133.739 22.325C133.739 22.915 133.649 23.445 133.469 23.915C133.299 24.385 133.049 24.79 132.719 25.13C132.389 25.46 131.994 25.715 131.534 25.895C131.074 26.065 130.559 26.15 129.989 26.15ZM129.989 24.725C130.359 24.725 130.684 24.635 130.964 24.455C131.244 24.275 131.459 24.01 131.609 23.66C131.769 23.3 131.849 22.855 131.849 22.325C131.849 21.525 131.679 20.93 131.339 20.54C130.999 20.14 130.549 19.94 129.989 19.94C129.619 19.94 129.294 20.03 129.014 20.21C128.734 20.38 128.514 20.645 128.354 21.005C128.204 21.355 128.129 21.795 128.129 22.325C128.129 23.115 128.299 23.715 128.639 24.125C128.979 24.525 129.429 24.725 129.989 24.725ZM136.246 26.12C135.936 26.12 135.696 26.04 135.526 25.88C135.366 25.71 135.286 25.47 135.286 25.16V19.49C135.286 19.18 135.366 18.945 135.526 18.785C135.686 18.625 135.911 18.545 136.201 18.545C136.491 18.545 136.716 18.625 136.876 18.785C137.036 18.945 137.116 19.18 137.116 19.49V20.435H136.966C137.106 19.835 137.381 19.38 137.791 19.07C138.201 18.76 138.746 18.575 139.426 18.515C139.636 18.495 139.801 18.55 139.921 18.68C140.051 18.8 140.126 18.99 140.146 19.25C140.166 19.5 140.106 19.705 139.966 19.865C139.836 20.015 139.636 20.105 139.366 20.135L139.036 20.165C138.426 20.225 137.966 20.415 137.656 20.735C137.346 21.045 137.191 21.485 137.191 22.055V25.16C137.191 25.47 137.111 25.71 136.951 25.88C136.791 26.04 136.556 26.12 136.246 26.12ZM144.945 26.15C144.295 26.15 143.75 26.04 143.31 25.82C142.88 25.6 142.56 25.28 142.35 24.86C142.14 24.43 142.035 23.9 142.035 23.27V20.075H141.255C141.015 20.075 140.83 20.015 140.7 19.895C140.57 19.765 140.505 19.59 140.505 19.37C140.505 19.14 140.57 18.965 140.7 18.845C140.83 18.725 141.015 18.665 141.255 18.665H142.035V17.3C142.035 16.99 142.115 16.755 142.275 16.595C142.445 16.435 142.68 16.355 142.98 16.355C143.28 16.355 143.51 16.435 143.67 16.595C143.83 16.755 143.91 16.99 143.91 17.3V18.665H145.5C145.74 18.665 145.925 18.725 146.055 18.845C146.185 18.965 146.25 19.14 146.25 19.37C146.25 19.59 146.185 19.765 146.055 19.895C145.925 20.015 145.74 20.075 145.5 20.075H143.91V23.165C143.91 23.645 144.015 24.005 144.225 24.245C144.435 24.485 144.775 24.605 145.245 24.605C145.415 24.605 145.565 24.59 145.695 24.56C145.825 24.53 145.94 24.51 146.04 24.5C146.16 24.49 146.26 24.53 146.34 24.62C146.42 24.7 146.46 24.87 146.46 25.13C146.46 25.33 146.425 25.51 146.355 25.67C146.295 25.82 146.18 25.925 146.01 25.985C145.88 26.025 145.71 26.06 145.5 26.09C145.29 26.13 145.105 26.15 144.945 26.15Z" fill="#FFC107"/>
</svg>
